nColumns=19
nRows=58
DataType=double
version=3
OpenSimVersion=4.1
endheader
time	ground_force_calcn_r_vx	ground_force_calcn_r_vy	ground_force_calcn_r_vz	ground_force_calcn_r_px	ground_force_calcn_r_py	ground_force_calcn_r_pz	ground_force_calcn_r_mx	ground_force_calcn_r_my	ground_force_calcn_r_mz	ground_force_calcn_l_vx	ground_force_calcn_l_vy	ground_force_calcn_l_vz	ground_force_calcn_l_px	ground_force_calcn_l_py	ground_force_calcn_l_pz	ground_force_calcn_l_mx	ground_force_calcn_l_my	ground_force_calcn_l_mz
1.27	-132.043	183.797	-29.1518	-0.112597	0	-0.352887	-0.300757	0.418637	-0.0663995	-131.094	192.353	19.3953	-0.128425	0	-0.840162	0.0318847	-0.0467839	-0.00471732
1.28	-291.405	417.087	-89.4258	-0.115065	0	-0.352623	-0.770321	1.10256	-0.236394	-257.304	398.226	55.6068	-0.134261	0	-0.841858	0.101581	-0.157215	-0.0219529
1.29	-221.51	555.194	-117.125	-0.149952	0	-0.358408	-0.589748	1.47815	-0.311833	-160.229	376.977	65.6408	-0.142735	0	-0.839188	0.462437	-1.08799	-0.189445
1.3	-116.96	971.764	-131.613	-0.210329	0	-0.370063	0.239516	-1.99003	0.269524	-122.59	357.94	63.0534	-0.150722	0	-0.836659	0.248699	-0.726158	-0.127917
1.31	-94.5201	1238.32	-148.493	-0.22713	0	-0.374531	0.381352	-4.99615	0.599113	-166.619	389.403	65.7311	-0.157933	0	-0.834102	-0.0614509	0.143616	0.0242424
1.32	-247.797	970.44	-144.065	-0.207129	0	-0.372386	1.26902	-4.96981	0.737783	-200.177	513.428	75.0914	-0.184383	0	-0.829983	-0.532816	1.3666	0.199873
1.33	-316.84	700.423	-127.975	-0.178001	0	-0.368709	1.72496	-3.81328	0.696731	-157.516	717.606	86.6597	-0.216426	0	-0.825185	-0.454342	2.06987	0.249962
1.34	-253.284	605.447	-115.218	-0.170957	0	-0.367821	1.68106	-4.01839	0.764707	-101.614	754.248	95.169	-0.225884	0	-0.823447	-0.20394	1.51378	0.191004
1.35	-190.855	597.261	-107.026	-0.175537	0	-0.369158	1.52017	-4.75721	0.852466	-117.755	618.174	84.8544	-0.21233	0	-0.822932	-0.0654681	0.343684	0.0471762
1.36	-174.116	558.652	-92.6028	-0.172152	0	-0.370248	1.55507	-4.98945	0.827057	-142.184	501.641	67.6732	-0.192369	0	-0.821913	-0.0073588	0.0259627	0.00350247
1.37	-153.203	526.039	-75.2396	-0.171057	0	-0.37246	1.5975	-5.4852	0.784552	-149.6	469.807	57.0548	-0.182582	0	-0.821071	-0.183906	0.577543	0.0701386
1.38	-121.281	539.069	-68.0916	-0.178503	0	-0.375591	1.30819	-5.81465	0.734467	-144.494	481.875	58.4978	-0.181873	0	-0.821287	-0.271237	0.904554	0.10981
1.39	-92.744	560.956	-65.1382	-0.18643	0	-0.378232	0.943719	-5.70801	0.662816	-131.533	492.322	67.4536	-0.182535	0	-0.822214	-0.173375	0.648935	0.0889114
1.4	-63.0613	578.635	-63.8118	-0.192534	0	-0.380036	0.602073	-5.52447	0.609238	-114.912	490.22	75.3912	-0.181717	0	-0.823254	-0.0759724	0.324103	0.0498439
1.41	-34.2086	594.248	-68.2244	-0.19561	0	-0.380588	0.296299	-5.1471	0.590928	-101.35	490.746	79.5312	-0.17972	0	-0.823905	-0.0544977	0.263883	0.0427654
1.42	-26.1694	593.723	-72.5616	-0.192411	0	-0.380194	0.206993	-4.6962	0.573943	-91.5899	513.626	81.4344	-0.179198	0	-0.824319	-0.112014	0.628162	0.0995939
1.43	-37.3509	568.75	-71.6153	-0.183208	0	-0.379228	0.290468	-4.42302	0.556933	-79.059	542.627	83.5172	-0.179354	0	-0.824937	-0.154734	1.06203	0.16346
1.44	-46.0419	534.552	-68.7747	-0.171505	0	-0.37786	0.355574	-4.12825	0.531135	-63.9822	555.185	86.3057	-0.178075	0	-0.825656	-0.140483	1.219	0.189498
1.45	-47.8296	502.407	-66.2597	-0.159791	0	-0.376552	0.33463	-3.51499	0.463574	-52.6722	547.015	87.5668	-0.174219	0	-0.826591	-0.10796	1.1212	0.179482
1.46	-46.3307	474.134	-63.8708	-0.149395	0	-0.37558	0.268062	-2.74326	0.369546	-47.5162	520.05	84.2933	-0.167808	0	-0.827575	-0.0962015	1.0529	0.170661
1.47	-44.7459	453.104	-60.889	-0.141478	0	-0.375254	0.211891	-2.14564	0.288335	-46.0826	482.338	76.488	-0.160182	0	-0.828158	-0.111612	1.16822	0.185254
1.48	-42.7963	440.283	-57.9627	-0.136486	0	-0.375523	0.167597	-1.72421	0.226991	-42.9314	444.308	67.6069	-0.154081	0	-0.828252	-0.134953	1.39666	0.212519
1.49	-40.1026	437.587	-56.3326	-0.133931	0	-0.375686	0.142339	-1.55316	0.199945	-39.9837	409.952	61.9712	-0.149759	0	-0.828321	-0.152667	1.56529	0.23662
1.5	-37.7369	449.942	-58.7579	-0.133857	0	-0.375208	0.138205	-1.64784	0.215191	-43.2265	386.099	61.9592	-0.146037	0	-0.829062	-0.189542	1.69299	0.271682
1.51	-35.3618	476.25	-66.9421	-0.135938	0	-0.374202	0.120168	-1.61842	0.227486	-50.1212	379.233	64.2746	-0.143951	0	-0.829904	-0.271252	2.05238	0.347849
1.52	-30.7141	507.598	-78.1764	-0.13897	0	-0.3729	0.0795327	-1.3144	0.202434	-53.3712	388.781	65.715	-0.144198	0	-0.83037	-0.386241	2.81356	0.475572
1.53	-25.3731	533.618	-87.405	-0.141097	0	-0.372048	0.0494766	-1.04053	0.170436	-49.8213	411.575	65.4578	-0.146319	0	-0.830202	-0.479039	3.95735	0.629386
1.54	-25.0851	548.012	-90.4445	-0.141243	0	-0.372081	0.0509581	-1.11324	0.183729	-41.3928	446.998	65.4127	-0.150166	0	-0.829904	-0.502861	5.43036	0.794666
1.55	-28.1035	557.444	-89.4293	-0.140311	0	-0.372503	0.0729885	-1.44776	0.23226	-28.7624	499.798	68.5989	-0.155418	0	-0.829592	-0.397144	6.90108	0.947195
1.56	-29.9892	569.234	-89.4424	-0.139339	0	-0.372994	0.0819384	-1.5553	0.244381	-9.46757	567.099	74.7001	-0.161696	0	-0.829132	-0.136872	8.19849	1.07993
1.57	-30.1916	582.334	-91.3221	-0.138141	0	-0.37344	0.0729093	-1.40627	0.220532	11.8378	626.193	83.2425	-0.167174	0	-0.828806	0.166132	8.78802	1.16823
1.58	-31.0307	595.092	-93.9984	-0.136271	0	-0.373763	0.0644668	-1.23631	0.195283	17.5036	648.869	92.2994	-0.167474	0	-0.829444	0.228442	8.46849	1.20461
1.59	-35.0471	603.226	-96.6527	-0.133379	0	-0.374052	0.0596744	-1.02711	0.16457	2.93487	636.047	94.6044	-0.162542	0	-0.830369	0.0370954	8.03937	1.19576
1.6	-39.8104	604.491	-98.2591	-0.130078	0	-0.374321	0.0531612	-0.807213	0.131211	-16.157	613.004	88.7109	-0.156896	0	-0.830426	-0.213846	8.11341	1.17413
1.61	-43.9976	601.77	-98.7538	-0.127114	0	-0.374616	0.0464399	-0.635174	0.104236	-29.5537	594.005	80.7491	-0.152582	0	-0.829797	-0.409867	8.23799	1.11987
1.62	-47.798	597.24	-98.6437	-0.124606	0	-0.374994	0.0399759	-0.499502	0.0825008	-37.1683	581.397	75.2591	-0.149389	0	-0.829179	-0.520894	8.14797	1.05472
1.63	-50.5762	591.797	-98.3895	-0.122516	0	-0.375377	0.034828	-0.407526	0.0677534	-40.5937	574.844	72.5584	-0.147173	0	-0.82866	-0.564052	7.98749	1.0082
1.64	-52.6345	586.67	-98.5305	-0.120851	0	-0.375464	0.0349601	-0.389669	0.0654444	-41.5915	573.176	71.8443	-0.145642	0	-0.828198	-0.56513	7.7881	0.976193
1.65	-54.2612	581.824	-99.5473	-0.119558	0	-0.375499	0.0375107	-0.402214	0.068817	-40.9188	574.418	72.0759	-0.14455	0	-0.827847	-0.543221	7.62574	0.95685
1.66	-55.1069	577.844	-101.545	-0.118457	0	-0.375344	0.0354145	-0.371352	0.0652581	-39.0547	577.007	73.1018	-0.14397	0	-0.827801	-0.502801	7.42854	0.941131
1.67	-55.1709	574.893	-104.193	-0.117532	0	-0.374924	0.0320401	-0.333866	0.0605092	-36.4116	579.893	75.3178	-0.143547	0	-0.828096	-0.44668	7.11383	0.923961
1.68	-54.1422	572.147	-107.08	-0.116913	0	-0.374254	0.0335729	-0.354781	0.0663992	-34.4961	581.548	78.2143	-0.142964	0	-0.828615	-0.396347	6.68174	0.898651
1.69	-52.4164	569.862	-109.545	-0.116479	0	-0.373698	0.0396716	-0.431303	0.0829099	-33.5208	580.475	80.2814	-0.142367	0	-0.829129	-0.365546	6.33011	0.875473
1.7	-50.9014	569.729	-110.858	-0.11616	0	-0.373237	0.0531153	-0.594509	0.11568	-32.1487	577.245	80.4296	-0.141783	0	-0.8294	-0.345697	6.20716	0.864867
1.71	-48.4572	572.47	-111.051	-0.116048	0	-0.372706	0.0758828	-0.896473	0.173904	-29.9032	574.129	79.3262	-0.141185	0	-0.829546	-0.326199	6.26289	0.86533
1.72	-44.6195	576.751	-111.45	-0.115986	0	-0.372077	0.0951707	-1.23017	0.237716	-26.7835	572.668	77.7661	-0.140538	0	-0.829709	-0.298987	6.39275	0.868111
1.73	-40.8516	580.492	-112.38	-0.115816	0	-0.371355	0.110188	-1.56574	0.303119	-25.182	572.18	75.8951	-0.139666	0	-0.829889	-0.28457	6.46594	0.857655
1.74	-40.4129	583.296	-112.91	-0.115295	0	-0.370628	0.131917	-1.90402	0.368566	-25.8369	571.462	73.9543	-0.138511	0	-0.830137	-0.288786	6.38738	0.826606
1.75	-43.667	584.208	-111.903	-0.114444	0	-0.369934	0.168799	-2.25831	0.432574	-28.5503	569.81	71.9502	-0.137087	0	-0.830475	-0.310011	6.18723	0.781264
1.76	-50.7862	582.691	-109.914	-0.113085	0	-0.369308	0.218731	-2.50959	0.47339	-34.0663	567.734	69.7887	-0.135399	0	-0.830769	-0.352122	5.8683	0.721362
1.77	-60.8934	578.432	-107.669	-0.111402	0	-0.368828	0.266333	-2.52993	0.470921	-42.2167	564.974	67.2864	-0.133621	0	-0.831033	-0.411309	5.50442	0.655557
1.78	-71.4922	570.09	-105.668	-0.109762	0	-0.368207	0.287699	-2.29416	0.425229	-51.8008	560.074	63.8469	-0.131865	0	-0.83123	-0.476519	5.15215	0.587332
1.79	-79.4317	555.503	-103.444	-0.108309	0	-0.367387	0.26567	-1.85795	0.345981	-62.2791	551.521	59.5035	-0.130104	0	-0.831511	-0.537432	4.7593	0.513479
1.8	-83.2379	531.412	-99.2519	-0.106891	0	-0.366636	0.20124	-1.28477	0.239956	-72.6411	536.139	54.3392	-0.128072	0	-0.831821	-0.584479	4.31384	0.43722
1.81	-81.1309	492.805	-91.1548	-0.105366	0	-0.365761	0.116661	-0.708625	0.131075	-80.7559	510.117	48.0416	-0.125806	0	-0.832307	-0.601046	3.79668	0.357561
1.82	-67.6211	430.152	-77.0012	-0.103899	0	-0.364469	0.0552249	-0.351297	0.0628855	-82.974	469.399	40.4223	-0.123558	0	-0.832925	-0.573793	3.24605	0.279534
1.83	-40.0346	331.978	-56.4655	-0.102386	0	-0.362645	0.0476372	-0.39502	0.0671884	-72.6982	405.404	32.0251	-0.121103	0	-0.833808	-0.483287	2.69507	0.212898
1.84	-7.89039	198.733	-32.0238	-0.100161	0	-0.360728	0.0239374	-0.602904	0.0971518	-47.0423	310.31	23.7747	-0.118242	0	-0.835374	-0.339407	2.23887	0.171533
